<svg xmlns="http://www.w3.org/2000/svg" version="1.1" xmlns:xlink="http://www.w3.org/1999/xlink" xmlns:svgjs="http://svgjs.dev/svgjs" width="128" height="128" viewBox="0 0 128 128"><g transform="matrix(0.8046875,0,0,0.8046875,12.221578124999994,17.721873045623603)"><svg viewBox="0 0 96 86" data-background-color="#ffffff" preserveAspectRatio="xMidYMid meet" height="114" width="128" xmlns="http://www.w3.org/2000/svg" xmlns:xlink="http://www.w3.org/1999/xlink"><g id="tight-bounds" transform="matrix(1,0,0,1,0.25950000000000273,0.38525136380305014)"><svg viewBox="0 0 95.481 85.22949727239389" height="85.22949727239389" width="95.481"><g><svg viewBox="0 0 95.481 85.22949727239389" height="85.22949727239389" width="95.481"><g><svg viewBox="0 0 95.481 85.22949727239389" height="85.22949727239389" width="95.481"><g id="textblocktransform"><svg viewBox="0 0 95.481 85.22949727239389" height="85.22949727239389" width="95.481" id="textblock"><g><svg viewBox="0 0 95.481 85.22949727239389" height="85.22949727239389" width="95.481"><g><svg viewBox="0 0 95.481 85.22949727239389" height="85.22949727239389" width="95.481"><g><svg xmlns:dc="http://purl.org/dc/elements/1.1/" xmlns:cc="http://creativecommons.org/ns#" xmlns:rdf="http://www.w3.org/1999/02/22-rdf-syntax-ns#" xmlns:svg="http://www.w3.org/2000/svg" xmlns="http://www.w3.org/2000/svg" xmlns:sodipodi="http://sodipodi.sourceforge.net/DTD/sodipodi-0.dtd" xmlns:inkscape="http://www.inkscape.org/namespaces/inkscape" viewBox="1.1652729543135714 4.968785970486204 78.39983815679756 69.98228749532262" version="1.1" x="0" y="0" height="85.22949727239389" width="95.481" class="icon-icon-0" data-fill-palette-color="accent" id="icon-0"><path d="M66.882 4.975C65.234 5.134 63.542 4.995 61.894 5.142 60.811 5.175 59.752 5.174 58.67 5.208 58.139 5.265 57.614 5.252 57.073 5.275 54.669 5.297 52.239 5.418 49.824 5.408 48.324 5.532 46.836 5.496 45.335 5.54 43.801 5.688 42.248 5.57 40.713 5.707 39.427 5.741 38.131 5.73 36.856 5.74 35.39 5.864 33.934 5.84 32.467 5.873 30.775 6.02 29.072 5.893 27.38 6.04 26.342 6.073 25.292 6.072 24.254 6.106 23.487 6.185 22.727 6.138 21.96 6.172 20.008 6.172 18.071 6.328 16.108 6.305 14.539 6.42 12.933 6.415 11.353 6.438 9.344 6.608 7.343 6.435 5.335 6.638 5.098 6.852 4.885 7.134 4.603 7.303 4.637 7.495 4.555 7.8 4.77 7.9 5.108 8.06 5.484 8.022 5.833 8.101 5.901 8.597 6.283 8.948 6.565 9.331 7.084 10.087 7.485 10.966 7.463 11.891 7.45 12.355 7.556 12.85 7.296 13.256 7.093 13.615 6.79 13.902 6.631 14.285 6.428 14.309 6.145 14.27 6.066 14.519 5.942 14.688 5.996 14.95 6.232 14.984 8.252 15.582 10.297 16.114 12.317 16.713 12.814 16.904 13.34 16.713 13.847 16.713 16.137 16.69 18.439 16.592 20.73 16.547 39.348 16.027 57.973 15.525 76.59 15.017 76.976 15.028 77.218 14.7 77.523 14.518 78.052 14.191 78.296 13.564 78.42 12.988 78.42 12.109 78.61 11.243 78.486 10.363 78.406 9.742 78.465 9.132 78.42 8.5 78.25 8.15 77.968 7.864 77.82 7.502 77.663 7.13 77.496 6.674 77.09 6.505 76.627 6.223 76.068 6.35 75.56 6.272 72.942 5.866 70.33 5.448 67.713 5.042 67.431 4.997 67.163 4.952 66.882 4.975M6.764 8.168C8.231 8.359 9.71 8.519 11.187 8.7 11.435 8.835 11.517 9.128 11.652 9.365 10.377 9.354 9.125 9.1 7.862 8.999 7.342 9.009 7.125 8.449 6.764 8.168M8.028 9.963C9.359 10.019 10.665 10.305 11.985 10.395 12.177 10.847 12.403 11.263 12.55 11.725 11.15 11.59 9.748 11.363 8.36 11.16 8.225 10.776 8.13 10.358 8.028 9.963M8.36 12.124C9.76 12.237 11.15 12.521 12.55 12.656V13.986L8.327 13.188C8.35 12.838 8.372 12.474 8.36 12.124M7.895 14.053C9.43 14.313 10.96 14.624 12.484 14.917 12.359 15.188 12.273 15.477 12.284 15.782 10.716 15.364 9.108 14.992 7.562 14.518 7.675 14.36 7.793 14.211 7.895 14.053" fill="#f98d67" stroke="none" data-fill-palette-color="accent"></path><path d="M78.253 15.05C77.99 15.092 77.742 15.414 77.522 15.55 77.014 16.022 76.28 15.858 75.66 15.914 54.706 16.49 33.442 16.77 12.488 17.437 9.646 16.652 7.062 15.485 4.143 14.664 4.17 14.788 3.485 15.15 3.829 15.514 4.172 15.878 5.545 16.245 5.534 16.38 5.512 16.99 5.766 17.567 5.8 18.176 5.835 19.045 5.665 19.923 5.767 20.803 5.8 21.209 5.945 21.616 5.9 22.033 5.098 22.328 3.585 22.503 3.585 22.503L3.235 23.162S8.387 24.087 10.688 24.494C17.098 25.599 23.486 26.703 29.907 27.752 30.753 27.967 31.62 27.687 32.467 27.62 47.554 25.712 62.657 23.807 77.755 21.9 78.037 21.866 78.385 21.794 78.519 21.501 79.005 20.497 79.415 19.426 79.55 18.309 79.55 17.745 79.584 17.189 79.55 16.613 79.313 16.06 78.914 15.568 78.52 15.117A0.37 0.37 0 0 0 78.252 15.05M6.365 16.68L9.823 17.81 7.862 17.71 6.598 17.579zM29.707 18.043L30.638 19.506 17.105 18.476zM6.731 18.575C7.94 18.585 9.148 18.729 10.355 18.808 16.607 19.304 22.858 19.84 29.11 20.338 29.719 20.404 30.329 20.447 30.938 20.436 31.039 20.73 31.059 21.03 31.07 21.335 29.299 21.245 27.544 20.983 25.784 20.836 22.32 20.475 18.885 20.133 15.41 19.772 12.532 19.502 9.642 19.156 6.764 18.907 6.754 18.783 6.742 18.7 6.731 18.575M6.665 19.805C14.835 20.64 23.012 21.486 31.17 22.332 31.238 22.671 31.292 23.013 31.303 23.363 23.09 22.36 14.846 21.397 6.631 20.371 6.642 20.19 6.665 19.986 6.665 19.805M6.798 21.368C8.129 21.436 9.423 21.665 10.754 21.8 17.57 22.624 24.377 23.46 31.204 24.26A2.3 2.3 0 0 1 31.004 25.16C30.282 25.136 29.565 24.972 28.843 24.893 21.768 23.888 14.682 22.904 7.596 21.9A4 4 0 0 1 6.798 21.734C6.787 21.644 6.798 21.458 6.798 21.368M6.532 22.731C6.927 22.731 7.312 22.752 7.695 22.831 15.312 23.903 22.922 24.996 30.54 26.056 30.403 26.316 30.286 26.584 30.173 26.854 22.285 25.647 14.386 24.297 6.498 23.067 6.295 23.022 6.51 22.844 6.532 22.73" fill="#f98d67" stroke="none" data-fill-palette-color="accent"></path><path d="M74.995 22.731C74.149 22.697 73.336 22.907 72.5 22.997 58.881 24.882 45.29 26.766 31.67 28.65 31.331 28.695 30.977 28.784 30.64 28.75 28.245 28.208 25.837 27.86 23.422 27.42 15.827 26.329 9.485 24.794 2.708 23.496 2.279 23.564 2.224 24.226 2.608 24.361 3.296 24.654 4.07 24.712 4.803 24.893 4.904 25.852 5.51 26.66 5.6 27.619 5.657 28.172 5.823 28.696 5.767 29.25 5.654 29.778 5.457 30.291 5.4 30.843 4.905 31.183 4.18 31.004 3.672 31.376 3.571 31.602 3.546 31.951 3.805 32.075 4.065 32.22 4.355 32.284 4.636 32.374 6.216 32.87 7.811 33.352 9.391 33.837 13.341 34.897 17.28 35.935 21.228 36.996 21.42 37.053 21.624 37.14 21.827 37.096 22.583 36.938 23.354 36.865 24.121 36.763 33.983 35.567 43.852 34.335 53.714 33.139 60.733 32.269 67.754 31.47 74.762 30.545 75.135 30.534 75.402 30.263 75.56 29.947 75.854 29.36 76.335 28.807 76.391 28.117 76.447 27.194 76.437 26.284 76.358 25.359 76.257 24.648 75.831 24.006 75.56 23.363 75.425 23.115 75.322 22.753 74.995 22.731M5.734 25.092C11.07 26.108 16.39 27.202 21.727 28.251 22.291 28.307 22.652 28.809 22.991 29.215 17.924 28.267 12.86 27.282 7.795 26.322 7.231 26.232 6.675 26.068 6.1 26.023 5.975 25.707 5.846 25.408 5.734 25.093M6.432 27.021C11.87 28.014 17.308 29.097 22.758 30.113 22.916 30.136 23.066 30.113 23.223 30.113 23.246 30.587 23.257 31.08 23.257 31.543 21.632 31.137 20.005 30.883 18.369 30.545 14.78 29.835 11.184 29.117 7.596 28.417A10 10 0 0 1 6.598 28.184C6.575 27.79 6.477 27.416 6.432 27.021M6.798 29.182C8.626 29.611 10.478 29.896 12.318 30.279 15.757 30.956 19.204 31.63 22.657 32.308 22.828 32.364 23.021 32.286 23.19 32.24 23.168 32.625 23.113 33.032 23.09 33.405 18.014 32.31 12.962 31.185 7.896 30.08 7.466 30 7.06 29.892 6.631 29.847 6.665 29.621 6.685 29.397 6.798 29.182M6.298 30.745C6.796 30.778 7.289 30.909 7.763 31.01 12.795 32.094 17.825 33.186 22.858 34.269 22.778 34.71 22.628 35.16 22.458 35.566 21.027 35.194 19.603 34.852 18.17 34.502 17.007 34.22 15.818 34.022 14.68 33.638 11.89 32.78 9.096 31.902 6.298 31.044z" fill="#f98d67" stroke="none" data-fill-palette-color="accent"></path><path d="M74.53 31.343C74.16 31.361 73.795 31.451 73.431 31.476 56.794 33.874 21.827 37.894 21.827 37.894S15.161 36.292 11.685 35.334C11.426 35.253 11.101 35.283 10.954 35.532 10.796 36.04 11.186 36.477 11.254 36.963 11.32 37.696 11.2 38.435 11.086 39.157 10.737 39.372 10.227 39.361 9.99 39.722 16.997 41.63 23.986 43.635 31.004 45.508 31.22 45.564 31.444 45.575 31.67 45.541 45.853 42.664 60.024 39.818 74.197 36.93 74.829 36.828 75.067 36.151 75.327 35.666 75.632 34.729 75.493 33.732 75.527 32.773 75.504 32.434 75.609 32.024 75.36 31.743A1.4 1.4 0 0 0 74.895 31.342C74.771 31.326 74.652 31.338 74.53 31.343M12.117 36.397C14.126 36.927 16.094 37.507 18.103 38.027 16.207 37.597 14.346 37.169 12.45 36.763 12.247 36.753 12.152 36.59 12.118 36.397M12.15 37.627C17.409 38.79 22.676 40.013 27.945 41.186 29.412 41.513 30.856 41.912 32.335 42.183 32.321 42.51 32.303 42.832 32.134 43.114 25.545 41.354 18.974 39.621 12.384 37.86 12.27 37.826 12.196 37.73 12.15 37.628M29.774 37.86C29.997 37.844 30.245 37.86 30.539 37.894 31.407 38.029 32.11 38.776 32.2 39.656A823 823 0 0 0 26.017 38.459S28.486 38.17 29.042 37.96C29.336 37.926 29.551 37.876 29.774 37.86M12.084 38.758C13.506 39.074 14.897 39.506 16.307 39.855 21.442 41.221 26.547 42.603 31.67 43.945 31.568 44.205 31.4 44.647 31.037 44.477 24.707 42.683 18.37 40.897 12.051 39.091 12.051 39.01 12.073 38.837 12.084 38.758M24.554 38.858S29.5 39.972 31.404 40.454C31.696 40.533 31.995 40.598 32.3 40.62L32.334 41.22C29.141 40.575 25.963 39.768 22.758 39.09 23.818 38.888 24.553 38.858 24.553 38.858" fill="#f98d67" stroke="none" data-fill-palette-color="accent"></path><path d="M68.511 38.559C68.291 38.577 68.061 38.635 67.846 38.692L31.569 46.439C31.3 46.495 31.02 46.362 30.771 46.306 23.764 44.298 16.731 42.362 9.724 40.387 9.284 40.31 9.018 39.951 8.826 39.59 8.284 39.556 7.76 39.621 7.23 39.69 5.605 39.836 3.978 40.008 2.342 40.155 1.936 40.188 1.37 40.158 1.178 40.62 1.1 40.947 1.396 41.172 1.644 41.318 2.558 41.871 3.446 42.483 4.337 43.048 4.315 43.837 4.181 44.617 4.171 45.407 4.17 45.713 4.116 46.035 4.07 46.34 3.608 46.373 3.171 46.46 2.708 46.506 2.448 46.573 2.112 46.556 1.943 46.805 1.763 47.019 1.84 47.323 2.043 47.47 2.73 48.057 3.493 48.59 4.17 49.199 4.554 49.57 4.95 49.914 5.368 50.229 6.316 50.85 7.17 51.637 8.06 52.325 9.54 53.475 10.938 54.71 12.451 55.816 12.9 56.222 13.34 56.662 13.78 57.079 14.016 57.34 14.406 57.213 14.71 57.18 17.001 56.773 19.304 56.389 21.594 55.982 23.242 55.62 24.912 55.356 26.582 55.05 27.699 54.825 28.834 54.72 29.973 54.585 44.721 52.115 59.45 49.63 74.197 47.17 74.547 47.114 74.98 47.077 75.127 46.705A9 9 0 0 0 75.594 43.48C75.514 43.04 75.407 42.612 75.294 42.183 75.16 41.563 74.801 41.029 74.496 40.487 74.361 40.217 74.07 40.101 73.798 40.022A720 720 0 0 1 69.176 38.625 1.6 1.6 0 0 0 68.511 38.56zM73.765 41.119L73.997 41.584 37.322 46.506 36.39 46.672 36.29 46.705H36.258C36.059 46.732 19.722 48.935 14.013 49.665A8 8 0 0 0 13.947 49.198L35.659 46.339H35.693zM5.202 43.579C8.024 45.48 10.48 46.78 12.949 48.768 13.242 49.647 12.955 49.405 13.215 50.297 10.417 48.253 7.956 46.618 5.135 44.61 5.237 44.16 5.18 44.042 5.202 43.58M5.069 45.609L13.348 51.427S13.481 53.185 13.481 53.422C10.694 51.334 5.002 46.905 5.002 46.905z" fill="#f98d67" stroke="none" data-fill-palette-color="accent"></path><path d="M67.347 49.066C67.144 49.079 66.935 49.143 66.75 49.166 57.654 50.678 48.556 52.176 39.449 53.688 37.95 53.913 32.805 54.815 31.304 54.984A1720 1720 0 0 0 68.013 52.856C68.135 53.082 68.168 52.973 68.078 53.256 68.079 53.47 67.838 53.52 67.679 53.554 61.023 53.905 54.343 54.189 47.697 54.652 45.913 54.753 44.159 54.939 42.376 54.984 41.19 55.176 39.98 54.95 38.785 55.018 35.727 55.176 32.699 55.314 29.64 55.483 27.565 55.54 25.53 56.021 23.49 56.314 20.578 56.8 17.645 57.292 14.745 57.777 14.508 57.811 14.26 57.9 14.013 57.844 13.359 57.404 12.163 56.566 11.486 56.148 8.869 56.363 6.496 56.584 3.672 56.614 3.367 56.5 3.65 56.297 3.705 56.048 6.125 55.838 8.53 55.746 11.22 55.616 9.03 53.833 6.87 52.023 4.67 50.263 4.455 50.06 3.905 50.146 3.905 50.496 3.589 52.008 3.135 53.472 2.84 54.984 2.863 55.921 2.65 56.874 2.74 57.811 3.001 58.905 3.259 59.963 3.439 61.069 3.484 61.374 3.621 61.823 4.005 61.801 6.984 61.72 9.97 61.548 12.949 61.435 31.715 61.205 52.197 59.451 68.511 59.44 68.634 59.083 68.831 58.39 68.877 58.01 68.832 57.322 68.975 56.67 69.043 55.982 68.986 54.639 68.73 53.279 68.877 51.925 68.719 51.474 68.68 50.991 68.444 50.562 68.207 50.145 68.071 49.672 67.88 49.232 67.727 49.08 67.55 49.053 67.347 49.066M70.074 55.35C69.899 55.367 69.742 55.43 69.674 55.616 69.666 56.613 69.69 57.456 69.543 58.443 70.219 58.296 70.893 58.256 71.57 58.143 72.067 58.087 72.559 57.954 73.066 57.977 73.146 58.191 73.21 58.417 73.266 58.642A2.6 2.6 0 0 1 72.5 58.842C71.326 58.98 70.491 59.172 69.31 59.307L68.976 60.138 61.728 60.371S30.864 64.518 13.38 66.888C13.121 66.945 12.808 66.848 12.65 66.622 12.638 66.43 12.65 66.024 12.65 66.024L58.07 60.27 14.346 62.067S12.566 62.109 11.686 62.233C10.996 62.29 10.278 62.233 9.59 62.3 8.733 62.424 7.855 62.32 6.997 62.433A6.5 6.5 0 0 1 5.967 62.466C4.858 62.455 5.092 62.497 4.294 62.508 6.27 65.736 9.002 70.333 10.954 73.572 11.19 73.932 11.369 74.352 11.685 74.669 12.425 75.048 13.27 74.982 14.08 74.835 33.973 72.015 53.871 69.21 73.765 66.39 74.047 66.356 74.295 66.173 74.363 65.891 74.577 65.112 74.758 64.34 74.962 63.563 75.052 63.27 75.04 62.96 74.995 62.665 74.825 61.672 74.755 60.665 74.562 59.673 74.348 58.917 74.035 58.168 73.798 57.412 73.753 57.175 73.568 57.037 73.365 56.946 72.43 56.461 71.498 55.958 70.572 55.45A0.82 0.82 0 0 0 70.074 55.35M8.759 62.931C9.02 62.965 9.39 62.838 9.557 63.098 10.291 64.102 10.896 65.198 11.685 66.157 11.821 66.517 11.718 66.915 11.752 67.287 10.748 65.832 9.752 64.387 8.759 62.931M7.925 63.082C9.178 64.955 10.355 66.855 11.62 68.717 11.889 69.112 11.841 69.596 11.819 70.047 11.378 69.573 11.115 68.981 10.753 68.451 9.852 67.051 8.975 65.649 8.061 64.261A15 15 0 0 1 7.396 63.083C7.57 63.011 7.771 63.083 7.926 63.083M6.786 63.124C8.411 65.685 10.16 68.76 11.786 71.31 11.83 71.469 11.873 72.205 11.884 72.375 11.287 71.528 10.82 70.617 10.255 69.748 9.309 68.28 8.41 66.792 7.464 65.325 7.18 64.852 6.476 63.554 6.262 63.035 6.717 63.082 6.549 63.084 6.786 63.124" fill="#f98d67" stroke="none" data-fill-palette-color="accent"></path></svg></g></svg></g></svg></g></svg></g></svg></g></svg></g><defs></defs></svg><rect width="95.481" height="85.22949727239389" fill="none" stroke="none" visibility="hidden"></rect></g></svg></g></svg>