<svg xmlns="http://www.w3.org/2000/svg" version="1.1" xmlns:xlink="http://www.w3.org/1999/xlink" xmlns:svgjs="http://svgjs.dev/svgjs" width="2000" height="2000" viewBox="0 0 2000 2000"><g transform="matrix(1,0,0,1,0,0)"><svg viewBox="0 0 280 280" data-background-color="#ffffff" preserveAspectRatio="xMidYMid meet" height="2000" width="2000" xmlns="http://www.w3.org/2000/svg" xmlns:xlink="http://www.w3.org/1999/xlink"><g id="tight-bounds" transform="matrix(1,0,0,1,0,0)"><svg viewBox="0 0 280 280" height="280" width="280"><g><svg viewBox="0 0 280 280" height="280" width="280"><g><svg viewBox="0 0 280 280" height="280" width="280"><g id="textblocktransform"><svg viewBox="0 0 280 280" height="280" width="280" id="textblock"><g><svg viewBox="0 0 280 280" height="280" width="280"><g transform="matrix(1,0,0,1,96.18286470140487,90.50252531694167)"><svg viewBox="0 0 87.63427059719027 98.99494936611666" height="98.99494936611666" width="87.63427059719027"><g id="icon-0"><svg xmlns="http://www.w3.org/2000/svg" xmlns:xlink="http://www.w3.org/1999/xlink" version="1.1" x="0" y="0" viewBox="6.891 1.122 85.824 96.95" enable-background="new 0 0 100 100" xml:space="preserve" height="98.99494936611666" width="87.63427059719027" class="icon-jxe-0" data-fill-palette-color="accent" id="jxe-0"><g fill="#f98d67" data-fill-palette-color="accent"><path fill="#f98d67" d="M64.008 72.381C68.01 69.232 76.238 60.799 79.097 51.202 72.586 43.192 45.185 9.015 38.859 1.122 38.212 8.613 31.63 24.377 20.21 29.646 14.963 32.206 9.733 33.802 7.743 34.367L46.82 81.687C51.235 80.263 59.958 75.56 64.008 72.381" data-fill-palette-color="accent"></path><g fill="#f98d67" data-fill-palette-color="accent"><g fill="#f98d67" data-fill-palette-color="accent"><path fill="#f98d67" d="M90.405 75.352C83.905 79.133 77.024 82.633 69.731 85.281 61.099 88.415 50.681 91.962 47.345 92.945V98.072L90.391 82.593z" data-fill-palette-color="accent"></path><polygon fill="#f98d67" points="6.891,35.865 6.891,50.088 45.703,97.945 45.736,82.902    " data-fill-palette-color="accent"></polygon></g><path fill="#f98d67" d="M88.717 70.42C83.699 74.356 77.331 78.341 70.439 81.783 63.918 85.049 49.56 89.451 47.346 90.122V91.266C51.032 90.176 60.382 87.368 68.583 84.253 77.687 80.796 90.703 72.625 90.703 72.625z" data-fill-palette-color="accent"></path></g><path fill="#f98d67" d="M80.877 50.835L80.763 51.238C77.912 61.38 69.513 70.096 65.001 73.647 60.776 76.966 51.992 81.701 47.346 83.208V85.376C53.876 83.342 63.002 79.016 68.067 75.454 76.766 69.326 85.262 60.824 90.486 53.05L90.533 53.086C84.648 46.442 51.938 9.001 49.818 6.309 49.099 7.666 48.45 8.574 47.396 9.196 58.228 22.704 75.994 44.843 80.613 50.51z" data-fill-palette-color="accent"></path><path fill="#f98d67" d="M87.321 59.925S75.733 72.025 68.993 76.771C63.297 80.779 54.493 84.713 47.346 86.939V88.437C48.038 88.225 49.184 87.871 50.614 87.416 55.88 85.739 65.024 82.694 69.72 80.344 79.025 75.696 87.343 70.07 92.554 64.958L92.715 64.798z" data-fill-palette-color="accent"></path></g></svg></g></svg></g><g id="text-0"><path d="M29.837 90.816l-0.162-1.032-7.121-2.404-1.8 2.573-1.409-0.733 2.106-4.534 1.334-4.691 1.544 0.368-0.327 3.133 7.614 3.134 0.111 4.213-1.809 7.343-5.938 5.76-5.764 0.843-5.051-1.042-3.779-1.408-4.108-3.804-2.733-6.469 0.482-5.599 1.544-4.142 3.561-5.128 1.643 1.366 4.285 2.188-0.411 1.452-5.506-1.081-1.722 2.482-1.656 4.44 2.668 7.319 5.622 3.494 5.822 1.581 4.761-0.672 4.477-2.722z" fill="#0c0a0f" data-fill-palette-color="primary"></path><path d="M23.589 64.328l2.612 1.862 0.088-0.138-1.056-3.576 0.456-2.902 2.222-2.091 4.602 3.728-0.982 1.024-3.953-1.358-0.684 2.611 1.251 4.126 3.021 2.172 3.301 1.961 3.947 2.338 2.796-2.914 1.054 0.916-3.248 4.726-2.43 4.168-1.12-0.813 0.74-2.624-3.398-2.4-6.436-4.012-3.572-2.05-1.406 2.43-1.269-0.58 2.024-5.167z" fill="#0c0a0f" data-fill-palette-color="primary"></path><path d="M45.891 43.171l6.258 5.684 4.297 3.567 2.127-1.744 0.778 1.089-3.368 4.369-2.065-1.2-0.132 0.143-0.93 4.466-2.774 3.024-3.361 0.681-3.411-2.004-1.101-3.371 1.701-4.883 3.371-3.978-3.747-3.228-2.308-1.103-2.836 1.745-1.923 3.444 3.008 2.912-0.81 1.354-4.682-2.906 2.084-4.255 3.271-3.915 3.184-1.26zM45.844 58.362l3.08 1.381 2.557-1.682 1.009-4.491-4.04-3.483-2.325 2.534-1.157 3.063z" fill="#0c0a0f" data-fill-palette-color="primary"></path><path d="M74.165 33.645l2.806 3.691 2.754-0.916 0.596 1.261-4.006 2.402-3.921 2.81-0.691-1.199 1.748-2.092-2.052-3.624-4.871-7.111-2.317-1.587-3.131 1.348-2.129 3.898 0.767 1.297 1.965 3.435 2.177 3.162 2.681 3.725 2.845-0.927 0.596 1.261-4.006 2.401-3.921 2.811-0.691-1.2 1.748-2.092-2.052-3.624-4.303-6.246-2.423-3.331-2.275 1.643-0.922-1.048 3.959-3.889 1.901-0.723 0.915 1.615 1.886-4.118 3.217-2.446 4.402 0.082 0.747 0.783 1.502-4.907 3.218-2.446 4.41 0.076 2.234 2.317 4.514 7.014 2.806 3.691 2.754-0.916 0.596 1.261-4.006 2.402-3.921 2.81-0.699-1.193 1.747-2.093-2.051-3.623-4.863-7.117-2.317-1.587-3.14 1.354-1.585 4.202 0.288 0.289z" fill="#0c0a0f" data-fill-palette-color="primary"></path><path d="M108.886 18.74l1.569 4.364 2.901-0.047 0.191 1.382-4.543 1.087-4.584 1.504-0.298-1.351 2.295-1.471-0.869-4.073-2.511-8.245-1.734-2.21-3.392 0.346-3.2 3.079 0.342 1.467 0.843 3.867 1.127 3.67 1.439 4.357 2.992-0.03 0.19 1.382-4.543 1.088-4.584 1.504-0.298-1.352 2.295-1.471-0.869-4.072-2.229-7.251-1.311-3.905-2.664 0.885-0.564-1.276 4.944-2.521 2.03-0.119 0.388 1.815 3.035-3.362 3.804-1.367 4.174 1.4 0.478 0.971 2.905-4.23 3.804-1.367 4.184 1.397 1.435 2.881 2.199 8.046 1.569 4.363 2.902-0.047 0.19 1.382-4.542 1.088-4.584 1.503-0.309-1.348 2.295-1.471-0.869-4.073-2.501-8.248-1.734-2.209-3.401 0.348-2.774 3.533 0.188 0.361z" fill="#0c0a0f" data-fill-palette-color="primary"></path><path d="M142.479 4.751l0.331 8.447 0.467 5.565 2.734 0.295-0.232 1.319-5.476 0.659-0.591-2.315-0.195 0.007-3.837 2.466-4.102 0.14-2.841-1.92-0.961-3.838 1.633-3.148 4.676-2.208 5.2-0.383-0.323-4.935-0.83-2.419-3.233-0.801-3.805 1.042 0.031 4.187-1.533 0.37-1.209-5.376 4.496-1.495 5.086-0.41 3.129 1.388zM131.609 15.363l1.174 3.165 2.991 0.645 3.911-2.427-0.346-5.324-3.437 0.118-2.996 1.321z" fill="#0c0a0f" data-fill-palette-color="primary"></path><path d="M159.653 2.158l-0.608 3.15 0.162 0.023 2.814-2.447 2.829-0.791 2.825 1.151-1.477 5.735-1.34-0.467-0.408-4.16-2.659 0.463-3.233 2.853-0.719 3.651-0.413 3.817-0.486 4.562 3.813 1.332-0.395 1.339-5.649-0.99-4.8-0.478 0.273-1.357 2.694-0.417 0.771-4.088 0.974-7.521 0.38-4.101-2.794-0.269 0-1.395 5.541-0.307z" fill="#0c0a0f" data-fill-palette-color="primary"></path><path d="M173.615 19.093l-0.989 4.279 2.986 1.468 3.664 0.585 1.622-2.306-0.41-2.279-5.715-6.434-0.769-2.851 1.156-4.024 3.38-1.442 4.191 0.512 5.204 2.849-2.514 5.297-1.421-1.017 0.497-4.142-2.457-1.304-3.026-0.227-1.363 1.85 0.221 2.51 5.973 6.396 1.082 2.776-0.94 3.598-3.504 2.228-4.77-0.648-3.084-1.113-3.091-2.443 2.617-5.147z" fill="#0c0a0f" data-fill-palette-color="primary"></path><path d="M208.048 23.231l-3.855 7.523-2.322 5.079 2.238 1.598-0.848 1.036-5.096-2.112 0.62-2.307-0.173-0.089-4.554 0.267-3.643-1.889-1.534-3.067 1.045-3.816 2.967-1.943 5.158 0.369 4.719 2.216 2.139-4.459 0.462-2.515-2.424-2.283-3.827-0.958-2.026 3.664-1.518-0.43 1.583-5.277 4.651 0.901 4.633 2.137 2.047 2.745zM193.37 27.148l-0.529 3.334 2.291 2.029 4.598-0.198 2.309-4.809-3.052-1.582-3.259-0.318z" fill="#0c0a0f" data-fill-palette-color="primary"></path><path d="M223.831 29.306l-4.01 4.589-5.415 6.703-0.806 2.691 2.302 2.426 4.966 0.71 2.637-3.264 3.077-3.856 2.426-3.329-2.258-1.667 0.723-1.205 4.912 2.6 1.26 1.584-3.592 4.006-2.019 2.434-1.448 1.922-4.476 5.541 1.654 2.349-1.02 0.953-4.211-3.403 1.375-3.151-5.537-0.264-3.31-2.319-1.263-4.217 1.526-2.833 5.351-6.558 2.519-3.754-2.258-1.667 0.717-1.197 4.918 2.593z" fill="#0c0a0f" data-fill-palette-color="primary"></path><path d="M245.563 49.671l-2.545 1.953 0.106 0.125 3.729 0.036 2.642 1.286 1.349 2.736-4.911 3.31-0.692-1.239 2.456-3.383-2.297-1.417-4.312-0.011-2.961 2.254-2.841 2.582-3.391 3.09 1.969 3.526-1.185 0.741-3.568-4.489-3.275-3.543 1.105-0.834 2.293 1.475 3.289-2.546 5.719-4.981 3.006-2.816-1.912-2.055 0.925-1.044 4.349 3.448z" fill="#0c0a0f" data-fill-palette-color="primary"></path><path d="M258.363 67.87l-5.418 2.79-7.503 4.238-1.74 2.206 1.248 3.103 4.356 2.488 3.654-2.064 4.279-2.453 3.482-2.202-1.486-2.381 1.116-0.854 3.61 4.226 0.588 1.936-4.814 2.403-2.774 1.52-2.053 1.254-6.202 3.503 0.673 2.794-1.299 0.51-2.663-4.714 2.439-2.424-5.051-2.283-2.224-3.375 0.378-4.386 2.462-2.073 7.389-4.127 3.725-2.562-1.487-2.382 1.108-0.848 3.618 4.22z" fill="#0c0a0f" data-fill-palette-color="primary"></path><path d="M256.672 95.259l-4.036 1.734 0.582 3.275 1.696 3.301 2.818-0.056 1.596-1.679 1.808-8.413 1.844-2.307 3.929-1.447 3.161 1.873 2.066 3.682 0.78 5.881-5.758 1.106-0.02-1.747 3.633-2.049-0.401-2.753-1.606-2.574-2.298-0.006-1.893 1.663-1.625 8.6-1.599 2.514-3.457 1.37-3.869-1.508-2.299-4.23-0.927-3.145 0.142-3.937 5.699-0.934z" fill="#0c0a0f" data-fill-palette-color="primary"></path><path d="M14.433 194.649l0.784 0.669 6.92-2.826-0.315-3.105 1.545-0.367 1.354 4.781 2.059 4.388-1.41 0.732-1.791-2.554-7.76 2.593-2.828-3.108-3.418-6.689 0.727-8.199 3.774-4.385 4.482-2.509 3.76-1.4 5.564 0.19 6.269 3.083 3.278 4.524 1.535 4.125 0.66 6.175-2.126 0.038-4.653 1.142-0.627-1.361 4.837-2.761-0.314-2.985-1.645-4.422-6.766-3.772-6.496 1.031-5.409 2.603-3.15 3.596-1.593 4.962z" fill="#0c0a0f" data-fill-palette-color="primary"></path><path d="M39.764 205.099l-2.767 1.582 0.083 0.129 3.657 0.557 2.443 1.622 0.955 2.887-5.302 2.593-0.51-1.314 2.889-3.008-2.075-1.711-4.25-0.591-3.225 1.814-3.144 2.151-3.765 2.584 1.449 3.737-1.261 0.574-2.902-4.911-2.739-3.934 1.194-0.677 2.063 1.768 3.582-2.054 6.323-4.13 3.339-2.36-1.598-2.295 1.052-0.902 3.814 4.001z" fill="#0c0a0f" data-fill-palette-color="primary"></path><path d="M54.024 229.103l-6.173 5.716-3.902 3.952 1.546 2.262-1.145 0.674-4.04-3.71 1.366-1.947-0.131-0.144-4.341-1.296-2.766-3.018-0.382-3.385 2.291-3.211 3.424-0.793 4.698 2.095 3.649 3.693 3.511-3.44 1.298-2.204-1.487-2.954-3.237-2.198-3.161 2.731-1.263-0.924 3.276-4.392 4.038 2.435 3.611 3.576 0.967 3.265zM38.973 227.754l-1.627 2.936 1.441 2.677 4.365 1.385 3.812-3.702-2.31-2.52-2.952-1.403z" fill="#0c0a0f" data-fill-palette-color="primary"></path><path d="M70.25 252.027l-2.275 4.016 1.924 2.16-0.916 1.039-3.767-2.711-4.116-2.476 0.822-1.1 2.596 0.764 2.498-3.293 4.586-7.249 0.534-2.748-2.469-2.336-4.397-0.393-0.889 1.203-2.357 3.154-2.024 3.225-2.347 3.92 1.969 2.239-0.925 1.033-3.766-2.71-4.108-2.471 0.814-1.106 2.605 0.771 2.498-3.294 4.015-6.4 2.082-3.518-2.396-1.442 0.591-1.252 5.116 2.092 1.406 1.44-1.113 1.485 4.503 0.084 3.503 1.974 1.665 4.061-0.422 0.996 5.077-0.568 3.504 1.975 1.656 4.055-1.236 2.959-4.626 6.88-2.266 4.022 1.923 2.16-0.925 1.033-3.766-2.711-4.116-2.476 0.822-1.1 2.605 0.77 2.498-3.293 4.577-7.255 0.543-2.742-2.47-2.336-4.463 0.212-0.16 0.372z" fill="#0c0a0f" data-fill-palette-color="primary"></path><path d="M106.846 267.823l-0.966 4.513 2.483 1.484-0.563 1.266-4.406-1.457-4.669-1.128 0.454-1.297 2.706-0.048 1.396-3.891 2.202-8.291-0.315-2.781-3.056-1.488-4.312 0.943-0.488 1.414-1.303 3.715-0.964 3.684-1.064 4.444 2.55 1.545-0.572 1.263-4.406-1.457-4.659-1.125 0.444-1.299 2.716-0.046 1.396-3.891 1.911-7.309 0.932-3.981-2.718-0.657 0.188-1.372 5.509 0.462 1.772 0.952-0.616 1.751 4.321-1.27 3.934 0.833 2.806 3.374-0.105 1.077 4.674-2.063 3.934 0.833 2.796 3.372-0.292 3.194-2.35 7.95-0.956 4.517 2.482 1.483-0.572 1.263-4.406-1.457-4.67-1.128 0.455-1.296 2.716-0.046 1.395-3.891 2.192-8.293-0.304-2.779-3.056-1.488-4.195 1.54-0.041 0.404z" fill="#0c0a0f" data-fill-palette-color="primary"></path><path d="M142.694 263.986l-0.256 8.409 0.081 5.554 2.697 0.484-0.322 1.289-5.478 0.278-0.43-2.34-0.194-0.007-3.969 2.185-4.091-0.144-2.681-2.102-0.682-3.885 1.836-2.997 4.788-1.879 5.192-0.012 0.01-4.915-0.661-2.471-3.149-1.012-3.837 0.766-0.27 4.169-1.545 0.252-0.833-5.416 4.568-1.17 5.082-0.067 3.005 1.602zM131.176 273.77l0.952 3.218 2.919 0.851 4.049-2.141 0.034-5.314-3.416-0.12-3.071 1.12z" fill="#0c0a0f" data-fill-palette-color="primary"></path><path d="M156.878 258.644l0.289 3.174 0.152-0.021 2.027-3.095 2.491-1.547 3.022 0.332 0.153 5.9-1.406-0.082-1.534-3.878-2.42 1.175-2.304 3.619 0.308 3.687 0.649 3.754 0.784 4.499 4.002 0.236-0.003 1.386-5.673 0.596-4.716 0.856-0.119-1.368 2.465-1.14-0.378-4.112-1.127-7.469-0.758-4.017-2.752 0.498-0.382-1.331 5.224-1.805z" fill="#0c0a0f" data-fill-palette-color="primary"></path><path d="M176.021 268.67l1.588 4.073 3.27-0.472 3.341-1.565 0.045-2.809-1.62-1.643-8.302-2.089-2.225-1.906-1.305-3.957 1.973-3.082 3.722-1.929 5.875-0.568 0.908 5.76-1.734-0.033-1.92-3.692-2.742 0.31-2.621 1.504-0.075 2.293 1.581 1.933 8.483 1.916 2.455 1.674 1.234 3.486-1.627 3.789-4.277 2.143-3.168 0.805-3.907-0.274-0.728-5.698z" fill="#0c0a0f" data-fill-palette-color="primary"></path><path d="M202.874 246.779l3.907 7.45 2.798 4.798 2.587-0.902 0.352 1.281-4.635 2.932-1.524-1.827-0.172 0.09-2.384 3.852-3.635 1.883-3.367-0.514-2.503-3.049 0.128-3.513 3.247-3.988 4.518-2.56-2.406-4.286-1.789-1.828-3.24 0.665-2.966 2.551 1.812 3.764-1.221 0.979-3.386-4.309 3.404-3.263 4.394-2.553 3.405-0.082zM197.646 260.958l2.409 2.336 2.961-0.693 2.476-3.853-2.581-4.646-3.035 1.573-2.124 2.484z" fill="#0c0a0f" data-fill-palette-color="primary"></path><path d="M211.749 235.567l3.624 4.861 5.382 6.664 2.462 1.354 2.833-1.737 1.729-4.685-2.618-3.24-3.118-3.796-2.724-3.062-2.096 1.851-1.02-0.953 3.558-4.228 1.798-0.9 3.142 4.329 1.957 2.472 1.561 1.818 4.45 5.509 2.63-1.125 0.717 1.197-4.188 3.383-2.786-1.999-1.404 5.33-2.947 2.736-4.367 0.344-2.436-2.072-5.26-6.578-3.113-3.235-2.103 1.843-1.013-0.944 3.551-4.237z" fill="#0c0a0f" data-fill-palette-color="primary"></path><path d="M230.92 217.693l2.323 2.181 0.1-0.117-0.54-3.66 0.835-2.811 2.48-1.759 4.033 4.309-1.106 0.873-3.723-1.88-1.028 2.485 0.68 4.236 2.68 2.552 2.978 2.375 3.575 2.843 3.148-2.481 0.918 1.038-3.845 4.213-2.958 3.772-0.997-0.943 1.086-2.49-3.014-2.823-5.803-4.835-3.235-2.5-1.726 2.2-1.17-0.741 2.707-4.82z" fill="#0c0a0f" data-fill-palette-color="primary"></path><path d="M241.641 202.469l5.16 3.184 7.459 4.212 2.787 0.352 1.995-2.659-0.12-4.992-3.627-2.048-4.298-2.38-3.66-1.843-1.267 2.493-1.299-0.51 1.75-5.241 1.34-1.5 4.516 2.867 2.73 1.577 2.12 1.115 6.167 3.482 2.031-2.015 1.108 0.849-2.647 4.688-3.326-0.832 0.658 5.472-1.732 3.63-3.933 1.928-3.027-1.028-7.315-4.177-4.085-1.861-1.276 2.489-1.29-0.505 1.74-5.247z" fill="#0c0a0f" data-fill-palette-color="primary"></path><path d="M264.526 187.22l4.224 1.126 1.551-2.919 0.711-3.62-2.241-1.695-2.282 0.337-6.59 5.463-2.852 0.671-3.963-1.285-1.321-3.413 0.642-4.142 3.012-5.077 5.184 2.671-1.051 1.38-4.113-0.633-1.371 2.396-0.334 3.003 1.806 1.416 2.494-0.134 6.557-5.713 2.801-0.992 3.542 1.063 2.096 3.551-0.798 4.717-1.222 3.032-2.529 2.991-5.027-2.778z" fill="#0c0a0f" data-fill-palette-color="primary"></path><path d="M0.156 139.918c0-6.013 4.875-10.888 10.888-10.888 6.013 0 10.888 4.875 10.888 10.888 0 6.013-4.875 10.888-10.888 10.888-6.013 0-10.888-4.875-10.888-10.888z" fill="#0c0a0f" data-fill-palette-color="primary"></path><path d="M258.068 139.918c0-6.013 4.875-10.888 10.888-10.888 6.013 0 10.888 4.875 10.888 10.888 0 6.013-4.875 10.888-10.888 10.888-6.013 0-10.888-4.875-10.888-10.888z" fill="#0c0a0f" data-fill-palette-color="primary"></path></g><g id="text-1"></g></svg></g></svg></g></svg></g></svg></g><defs></defs></svg><rect width="280" height="280" fill="none" stroke="none" visibility="hidden"></rect></g></svg></g></svg>